<svg xmlns="http://www.w3.org/2000/svg" version="1.1" xmlns:xlink="http://www.w3.org/1999/xlink" xmlns:svgjs="http://svgjs.com/svgjs" width="100%" height="100%" viewBox="0 0 1000 600"><rect width="1000" height="600" x="0" y="0" fill=" #48c9b0 "/><g><circle r="166.66666666666666" cx="552.1946207682291" cy="574.4168707091013" fill="#a04ef6" transform="matrix(0.3242306698571865,0,0,0.3242306698571865,0,113.75642447065452)"/><path d="M533.960048814477 596.6439027106346L533.960048814477 596.6439027106346Q533.960048814477 608.7024292786161 530.3129195255234 618.3952503618711Q526.6329332159487 628.120928465747 519.404388679284 634.9551887549574Q512.2087011632406 641.8223060647888 501.79302562631915 645.6008634362272Q491.3773500893978 649.4122778282867 477.90597163470454 649.4122778282867L477.90597163470454 649.4122778282867Q464.4017361593901 649.4122778282867 454.01891764308994 645.6008634362272Q443.6032421061685 641.8223060647888 436.50612565198867 634.9551887549574Q429.4090091978088 628.120928465747 425.7290228882341 618.3952503618711Q422.08189359928053 608.7024292786161 422.08189359928053 596.6439027106346L422.08189359928053 596.6439027106346L422.08189359928053 502.96853691958466Q423.26474634164384 502.4756816102667 425.7290228882341 501.884255239085Q428.2261564554455 501.2928288679033 431.051860228869 501.2928288679033L431.051860228869 501.2928288679033Q441.2375366214419 501.2928288679033 441.2375366214419 510.0656533737646L441.2375366214419 510.0656533737646L441.2375366214419 595.0010516795744Q441.2375366214419 604.4638736184809 444.0632403948654 611.5609900726608Q446.9218011889101 618.6581065268406 451.7517832202269 623.4880885581574Q456.614622272165 628.3509276100956 463.3503114995116 630.7166330948221Q470.0860007268582 633.0823385795488 477.90597163470454 633.0823385795488L477.90597163470454 633.0823385795488Q485.6930855219297 633.0823385795488 492.4616317698975 630.7166330948221Q499.1973209972441 628.3509276100956 504.02730302856094 623.4880885581574Q508.890142080499 618.6581065268406 511.7158458539225 611.5609900726608Q514.5744066479672 604.4638736184809 514.5744066479672 595.0010516795744L514.5744066479672 595.0010516795744L514.5744066479672 502.96853691958466Q515.7572593903304 502.4756816102667 518.2215359369206 501.884255239085Q520.7186695041321 501.2928288679033 523.5443732775556 501.2928288679033L523.5443732775556 501.2928288679033Q533.960048814477 501.2928288679033 533.960048814477 510.0656533737646L533.960048814477 510.0656533737646L533.960048814477 596.6439027106346ZM680.8637880118758 518.3456225703078L680.8637880118758 518.3456225703078Q680.8637880118758 521.6641816530492 678.8595097539824 524.0298871377759Q676.8552314960889 526.3955926225025 674.2595268670138 527.5784453648657L674.2595268670138 527.5784453648657Q668.1152640108489 523.3070326841093 659.8352948143058 519.5284753126709Q651.5553256177627 515.7499179412328 638.2810892867966 515.7499179412328L638.2810892867966 515.7499179412328Q627.4054154611783 515.7499179412328 618.1725926666204 519.5284753126709Q608.9726268926835 523.3070326841093 602.105509582852 530.6341482826376Q595.2383922730206 537.9612638811659 591.3284068190975 549.0997938717537Q587.4184213651743 560.2054668417204 587.4184213651743 574.6296988944287L587.4184213651743 574.6296988944287Q587.4184213651743 589.3167871121063 591.2298357572338 600.1924609377245Q595.0083931286722 611.0681347633426 601.7440823560188 618.3952503618711Q608.4797715833654 625.7552229810206 617.9425935222719 629.402352269974Q627.4054154611783 633.0823385795488 639.0039437404631 633.0823385795488L639.0039437404631 633.0823385795488Q651.2924694527931 633.0823385795488 660.4267211854874 629.6323514143226Q669.5281158975608 626.2152212697174 675.6723787537258 621.4838103002642L675.6723787537258 621.4838103002642Q678.0380842384523 622.436663898279 680.1737905788304 624.9009404448693Q682.3094969192086 627.3980740120808 682.3094969192086 630.7166330948221L682.3094969192086 630.7166330948221Q682.3094969192086 635.6780432086239 676.6252323517406 639.6865997244106L676.6252323517406 639.6865997244106Q671.1709669286208 643.4980141164701 661.7081449897144 646.4551459723784Q652.2453230508079 649.4122778282867 637.5910918537513 649.4122778282867L637.5910918537513 649.4122778282867Q622.6740044917251 649.4122778282867 609.8926234700772 644.6808668588335Q597.1440994690504 639.9494558893803 587.7798485920075 630.5852050123374Q578.4484547355859 621.2538111559156 572.9941893124662 607.2895773919045Q567.5727809099676 593.3253436278931 567.5727809099676 574.6296988944287L567.5727809099676 574.6296988944287Q567.5727809099676 555.9669111815851 573.125617394951 541.871249335089Q578.6784538799343 527.8084445092143 588.1412758188408 518.3456225703078Q597.6040977577472 508.88280063140127 610.2540506969104 504.15138966194803Q622.9040036360736 499.4199786924948 636.8682374000848 499.4199786924948L636.8682374000848 499.4199786924948Q646.5610584833398 499.4199786924948 654.7424566180193 501.0628297235549Q662.8909977320777 502.73853777523624 668.7066903820307 505.43281346617493Q674.4895260113624 508.1599461777348 677.676657011619 511.6099333429611Q680.8637880118758 515.0270634875662 680.8637880118758 518.3456225703078Z " fill=" #48c9b0 " transform="matrix(0.3242306698571865,0,0,0.3242306698571865,0,113.75642447065452)"/><path d="M884.683211076654 577.5660372024042L884.683211076654 577.5660372024042Q884.683211076654 586.456832735809 881.9941693758149 593.6033850038048Q879.2809020740674 600.774162872709 873.9512698742062 605.8130878616687Q868.6458632752534 610.8762384515369 860.9663477872716 613.6621825560098Q853.2868322992897 616.472352261391 843.3543359268211 616.472352261391L843.3543359268211 616.472352261391Q833.3976139534441 616.472352261391 825.7423240663707 613.6621825560098Q818.062808578389 610.8762384515369 812.8300787821615 605.8130878616687Q807.5973489859341 600.774162872709 804.8840816841866 593.6033850038048Q802.1950399833476 586.456832735809 802.1950399833476 577.5660372024042L802.1950399833476 577.5660372024042L802.1950399833476 508.4988490123847Q803.0671616160521 508.13546499875775 804.8840816841866 507.6994041824055Q806.7252273532296 507.2633433660532 808.8086290313572 507.2633433660532L808.8086290313572 507.2633433660532Q816.3185653129798 507.2633433660532 816.3185653129798 513.7315788086121L816.3185653129798 513.7315788086121L816.3185653129798 576.3547571569813Q816.3185653129798 583.3317302186178 818.4019669911073 588.564460014845Q820.5095942701433 593.7971898110725 824.070757603687 597.3583531446161Q827.6561465381391 600.9437420790682 832.6223947243734 602.6879853444773Q837.5886429106076 604.4322286098864 843.3543359268211 604.4322286098864L843.3543359268211 604.4322286098864Q849.0958033421261 604.4322286098864 854.086277129269 602.6879853444773Q859.0525253155033 600.9437420790682 862.6136886490469 597.3583531446161Q866.199077583499 593.7971898110725 868.2824792616266 588.564460014845Q870.3901065406626 583.3317302186178 870.3901065406626 576.3547571569813L870.3901065406626 576.3547571569813L870.3901065406626 508.4988490123847Q871.2622281733671 508.13546499875775 873.0791482415016 507.6994041824055Q874.9202939105446 507.2633433660532 877.0036955886721 507.2633433660532L877.0036955886721 507.2633433660532Q884.683211076654 507.2633433660532 884.683211076654 513.7315788086121L884.683211076654 513.7315788086121L884.683211076654 577.5660372024042ZM968.939851036278 561.6982686073629L968.939851036278 561.6982686073629Q968.939851036278 551.9353514412535 963.4406396300576 547.380938470463Q957.9414282238371 542.850751100581 948.7114742777138 542.850751100581L948.7114742777138 542.850751100581Q941.7345012160773 542.850751100581 936.3079666125823 544.5949943659901Q930.9056576099957 546.3392376313993 927.078012666459 548.6164441167946L927.078012666459 548.6164441167946L927.078012666459 613.8559873632773Q926.2058910337545 614.1951457759958 924.4616477683453 614.6312065923482Q922.7174045029362 615.0672674087004 920.6097772239002 615.0672674087004L920.6097772239002 615.0672674087004Q913.124066543186 615.0672674087004 913.124066543186 608.7928367734094L913.124066543186 608.7928367734094L913.124066543186 549.3189865431398Q913.124066543186 545.6366952050539 914.6018281986021 543.2868119169333Q916.0795898540182 540.9369286288127 919.7376555911957 538.6597221434174L919.7376555911957 538.6597221434174Q924.2920685619861 535.8737780389445 931.7777792427003 533.6207971544577Q939.287715524323 531.3435906690625 948.7114742777138 531.3435906690625L948.7114742777138 531.3435906690625Q964.5792428727552 531.3435906690625 973.736520016153 538.4901429370582Q982.893797159551 545.6366952050539 982.893797159551 560.9957261810175L982.893797159551 560.9957261810175L982.893797159551 613.8559873632773Q982.0216755268464 614.1951457759958 980.1805298578034 614.6312065923482Q978.3636097896689 615.0672674087004 976.4255617169921 615.0672674087004L976.4255617169921 615.0672674087004Q968.939851036278 615.0672674087004 968.939851036278 608.7928367734094L968.939851036278 608.7928367734094L968.939851036278 561.6982686073629ZM1077.955055124348 506.22164252698946L1077.955055124348 600.9437420790682Q1077.955055124348 604.4322286098864 1076.4772934689322 606.3460510816549Q1074.9753062126076 608.2598735534232 1071.8502036954162 610.1736960251915L1071.8502036954162 610.1736960251915Q1068.3617171645978 612.4509025105867 1061.893481722039 614.461627385989Q1055.4494718803887 616.472352261391 1047.0674139660616 616.472352261391L1047.0674139660616 616.472352261391Q1037.6678808135791 616.472352261391 1029.818786119238 614.0255665696366Q1021.969691424897 611.5787808778821 1016.3009008123173 606.4429534852886Q1010.6321101997377 601.2829004917867 1007.5796844852717 593.3611289947203Q1004.5272587708057 585.4151318967454 1004.5272587708057 574.2471298779453L1004.5272587708057 574.2471298779453Q1004.5272587708057 562.9095486527859 1007.6523612879971 554.7939723484518Q1010.8016894060969 546.7026216450262 1016.1070960050497 541.4698918487989Q1021.4367282049109 536.2371620525714 1028.6801828765404 533.7903763608169Q1035.92363754817 531.3435906690625 1044.1118906552294 531.3435906690625L1044.1118906552294 531.3435906690625Q1049.6837788641753 531.3435906690625 1054.9165086604025 532.7486755217532Q1060.14923845663 534.1295347735354 1064.001109001075 536.2371620525714L1064.001109001075 536.2371620525714L1064.001109001075 501.1584919371213Q1064.8732306337797 500.81933352440285 1066.6901507019143 500.3832727080506Q1068.531296370957 499.9472118916983 1070.4451188427256 499.9472118916983L1070.4451188427256 499.9472118916983Q1077.955055124348 499.9472118916983 1077.955055124348 506.22164252698946L1077.955055124348 506.22164252698946ZM1064.001109001075 600.410778859082L1064.001109001075 548.7860233231537Q1060.512622470257 546.3392376313993 1055.982435100375 544.5949943659901Q1051.4280221295844 542.850751100581 1045.51697550792 542.850751100581L1045.51697550792 542.850751100581Q1040.0904409044251 542.850751100581 1035.2937719245501 544.5223175632648Q1030.497102944675 546.1696584250401 1026.8390372074973 549.9246265658513Q1023.18097147032 553.6795947066627 1021.0006673885586 559.7844461355946Q1018.8203633067972 565.8892975645265 1018.8203633067972 574.610513891572L1018.8203633067972 574.610513891572Q1018.8203633067972 590.6478616929726 1026.499878794779 597.7944139609683Q1034.1793942827608 604.940966228964 1046.8978347597024 604.940966228964L1046.8978347597024 604.940966228964Q1053.0026861886342 604.940966228964 1056.9272335358048 603.6327837799072Q1060.8517808829754 602.3246013308503 1064.001109001075 600.410778859082L1064.001109001075 600.410778859082ZM1168.1227417056364 574.610513891572L1114.4145844915804 582.0962245722862Q1119.1143510678216 604.940966228964 1144.405878416254 604.940966228964L1144.405878416254 604.940966228964Q1151.722009890609 604.940966228964 1157.6572821131815 602.518406138118Q1163.5925543357544 600.0716204463636 1167.0810408665725 597.2856763418906L1167.0810408665725 597.2856763418906Q1171.2720698237363 599.7082364327368 1171.2720698237363 603.8992653899004L1171.2720698237363 603.8992653899004Q1171.2720698237363 606.3460510816549 1169.0917657419748 608.6232575670501Q1166.9114616602133 610.8762384515369 1163.156493519402 612.620481716946Q1159.4015253785908 614.364724982355 1154.4352771923564 615.4064258214189Q1149.4690290061221 616.472352261391 1143.7033359899087 616.472352261391L1143.7033359899087 616.472352261391Q1123.4749592313447 616.472352261391 1111.701317189833 605.4739294489502Q1099.9276751483214 594.4755066365094 1099.9276751483214 573.3750082452407L1099.9276751483214 573.3750082452407Q1099.9276751483214 563.442511872772 1102.8105216564281 555.6660939811563Q1105.6933681645348 547.9139016904492 1110.8291955571285 542.5115926878625Q1115.965022949722 537.109283685276 1123.135800818626 534.2264371771693Q1130.2823530866217 531.3435906690625 1138.6401854000405 531.3435906690625L1138.6401854000405 531.3435906690625Q1146.4892800943817 531.3435906690625 1153.1270947432995 533.9599555671762Q1159.7649093922178 536.5763204652899 1164.5615783720928 541.3729894451649Q1169.3582473519677 546.1696584250401 1172.047289052807 552.7105706703243Q1174.7605563545544 559.2514829156084 1174.7605563545544 567.1005776099495L1174.7605563545544 567.1005776099495Q1174.7605563545544 570.9282225534862 1173.0163130891451 572.59978901617Q1171.2720698237363 574.2471298779453 1168.1227417056364 574.610513891572L1168.1227417056364 574.610513891572ZM1138.4706061936813 542.6811718942217L1138.4706061936813 542.6811718942217Q1127.8355673948672 542.6811718942217 1120.858594333231 550.0942057722106Q1113.8816212715942 557.5072396501994 1113.542462858876 571.2916065671131L1113.542462858876 571.2916065671131L1161.5091526576268 564.6537919181951Q1160.6370310249222 555.0604539584449 1154.7744356050748 548.8829257267876Q1148.936065786136 542.6811718942217 1138.4706061936813 542.6811718942217ZM1208.9428792363915 548.6164441167946L1208.9428792363915 613.8559873632773Q1208.070757603687 614.1951457759958 1206.3265143382778 614.6312065923482Q1204.5822710728687 615.0672674087004 1202.4988693947412 615.0672674087004L1202.4988693947412 615.0672674087004Q1194.9889331131185 615.0672674087004 1194.9889331131185 608.7928367734094L1194.9889331131185 608.7928367734094L1194.9889331131185 549.6581449558582Q1194.9889331131185 545.6366952050539 1196.4666947685346 543.2868119169333Q1197.9444564239507 540.9369286288127 1201.4329429547688 538.6597221434174L1201.4329429547688 538.6597221434174Q1205.9873559255593 535.7041988325852 1213.7395482162665 533.523894750824Q1221.4917405069737 531.3435906690625 1231.2788832739916 531.3435906690625L1231.2788832739916 531.3435906690625Q1245.2328293972646 531.3435906690625 1245.2328293972646 538.320563730699L1245.2328293972646 538.320563730699Q1245.2328293972646 540.0648069961081 1244.6998661772786 541.5425686515241Q1244.1669029572925 543.0203303069402 1243.2947813245878 544.0862567469125L1243.2947813245878 544.0862567469125Q1241.5505380591787 543.7228727332856 1238.7645939547058 543.3837143205672Q1235.978649850233 543.0203303069402 1233.1927057457601 543.0203303069402L1233.1927057457601 543.0203303069402Q1225.1740318450597 543.0203303069402 1219.069180416128 544.691896769624Q1212.9643289871958 546.3392376313993 1208.9428792363915 548.6164441167946L1208.9428792363915 548.6164441167946ZM1318.4910465444477 592.7312633711003L1318.4910465444477 592.7312633711003Q1318.4910465444477 603.8992653899004 1310.2785678364799 610.1736960251915Q1302.0903147294202 616.472352261391 1286.5617045470976 616.472352261391L1286.5617045470976 616.472352261391Q1279.9238898981794 616.472352261391 1274.3520016892335 615.3337490186934Q1268.7801134802878 614.1951457759958 1264.8555661331172 612.354000106953Q1260.9310187859467 610.5370800388184 1258.7507147041854 608.1871967506977Q1256.5704106224239 605.8130878616687 1256.5704106224239 603.3905277708227L1256.5704106224239 603.3905277708227Q1256.5704106224239 601.2829004917867 1257.6847882642132 599.3690780200184Q1258.8233915069109 597.4552555482501 1261.1005979923061 596.0501706955592L1261.1005979923061 596.0501706955592Q1265.8003645685471 599.5386572263776 1272.0747952038384 602.2519245281251Q1278.373451440038 604.940966228964 1286.3921253407382 604.940966228964L1286.3921253407382 604.940966228964Q1304.5371004211747 604.940966228964 1304.5371004211747 592.7312633711003L1304.5371004211747 592.7312633711003Q1304.5371004211747 582.7987669986317 1292.4969767696703 579.8432436877995L1292.4969767696703 579.8432436877995L1278.010067426411 575.9913731433544Q1267.3750286275972 573.2054290388814 1262.4814572440882 567.8757968390203Q1257.6121114614878 562.5703902400675 1257.6121114614878 554.1883323257402L1257.6121114614878 554.1883323257402Q1257.6121114614878 549.6581449558582 1259.4290315296223 545.4671159986947Q1261.2701771986651 541.2760870415311 1265.097822142202 538.1509845243397Q1268.949692686647 535.00165640624 1274.6184832992267 533.1847363381055Q1280.2872739118063 531.3435906690625 1287.9667893997882 531.3435906690625L1287.9667893997882 531.3435906690625Q1300.176492257652 531.3435906690625 1307.6622029383661 534.9289796035146Q1315.1721392199888 538.4901429370582 1315.1721392199888 543.2141351142079L1315.1721392199888 543.2141351142079Q1315.1721392199888 545.4671159986947 1314.0335359772912 547.2113592641037Q1312.8949327345936 548.9556025295129 1310.981110262825 549.8277241622175L1310.981110262825 549.8277241622175Q1307.8317821447254 547.7443224840899 1302.0903147294202 545.2975367923354Q1296.3246217132069 542.850751100581 1288.4755270188657 542.850751100581L1288.4755270188657 542.850751100581Q1280.6264323245248 542.850751100581 1275.9993425510088 545.8305000123216Q1271.3964783784015 548.7860233231537 1271.3964783784015 554.1883323257402L1271.3964783784015 554.1883323257402Q1271.3964783784015 558.2097820765447 1274.0128432765152 560.9957261810175Q1276.6292081746287 563.7816702854905 1282.7340596035608 565.1867551381812L1282.7340596035608 565.1867551381812L1294.7499576541568 568.1422784490132Q1306.6205020993025 571.1220273607539 1312.555774321875 576.9603971796928Q1318.4910465444477 582.7987669986317 1318.4910465444477 592.7312633711003ZM1367.1360531686355 616.472352261391L1367.1360531686355 616.472352261391Q1354.9263503107718 616.472352261391 1347.3437372264239 611.0458176578961Q1339.7611241420757 605.6435086553095 1339.7611241420757 593.0946473847271L1339.7611241420757 593.0946473847271L1339.7611241420757 510.2430922777938Q1340.6332457747803 509.87970826416694 1342.4743914438232 509.4436474478146Q1344.2913115119577 509.00758663146235 1346.3989387909937 509.00758663146235L1346.3989387909937 509.00758663146235Q1353.7150702653487 509.00758663146235 1353.7150702653487 515.3062428676619L1353.7150702653487 515.3062428676619L1353.7150702653487 535.3650404198669L1382.32550493824 535.3650404198669Q1382.8342425573178 536.2371620525714 1383.3672057773038 537.7149237079875Q1383.90016899729 539.1926853634036 1383.90016899729 540.9369286288127L1383.90016899729 540.9369286288127Q1383.90016899729 546.8722008513854 1378.6674392010625 546.8722008513854L1378.6674392010625 546.8722008513854L1353.7150702653487 546.8722008513854L1353.7150702653487 592.2225257520226Q1353.7150702653487 599.1994988136591 1357.639617612519 602.0823453217658Q1361.5641649596896 604.940966228964 1368.7107172276856 604.940966228964L1368.7107172276856 604.940966228964Q1371.690466139426 604.940966228964 1375.3485318766034 603.8992653899004Q1379.006597613781 602.8575645508365 1381.4533833055352 601.4524796981459L1381.4533833055352 601.4524796981459Q1382.495084144599 602.518406138118 1383.3672057773038 604.0688445962596Q1384.2393274100082 605.6435086553095 1384.2393274100082 607.7511359343455L1384.2393274100082 607.7511359343455Q1384.2393274100082 611.5787808778821 1379.7091400401264 614.0255665696366Q1375.1789526702441 616.472352261391 1367.1360531686355 616.472352261391ZM1433.247718047823 605.1347710362318L1433.247718047823 605.1347710362318Q1440.5880751230864 605.1347710362318 1445.3847441029613 603.6327837799072Q1450.1814130828363 602.1550221244913 1452.264814760964 600.774162872709L1452.264814760964 600.774162872709L1452.264814760964 575.4826355242767L1430.6313531497092 577.7356164087635Q1421.5709784099452 578.6077380414681 1417.2103702464224 581.8297429622933Q1412.8497620828996 585.0759734840269 1412.8497620828996 591.350404119318L1412.8497620828996 591.350404119318Q1412.8497620828996 597.9639931673275 1417.9129126727678 601.5493821017797Q1422.9518376617273 605.1347710362318 1433.247718047823 605.1347710362318ZM1433.0781388414637 531.3435906690625L1433.0781388414637 531.3435906690625Q1448.2433650101596 531.3435906690625 1457.158386144473 538.1509845243397Q1466.0491816778779 544.958378379617 1466.0491816778779 559.5906413283269L1466.0491816778779 559.5906413283269L1466.0491816778779 600.9437420790682Q1466.0491816778779 604.7713870226048 1464.5714200224618 606.7821118980071Q1463.0694327661372 608.7928367734094 1460.1139094553052 610.5370800388184L1460.1139094553052 610.5370800388184Q1455.9228804981415 612.9838657305729 1449.042809840139 614.8007857987072Q1442.1385135812277 616.6419314677503 1433.247718047823 616.6419314677503L1433.247718047823 616.6419314677503Q1416.8469862327954 616.6419314677503 1407.8835138966654 610.1736960251915Q1398.8958159596266 603.7296861835412 1398.8958159596266 591.5199833256772L1398.8958159596266 591.5199833256772Q1398.8958159596266 580.0128228941587 1406.3815266403408 574.1744530752198Q1413.8914629219632 568.3118576553725 1427.5062506325178 566.9309984035904L1427.5062506325178 566.9309984035904L1452.264814760964 564.4842127118359L1452.264814760964 559.5906413283269Q1452.264814760964 550.8694250012813 1447.0320849647367 546.8722008513854Q1441.7993551685092 542.850751100581 1432.9085596351044 542.850751100581L1432.9085596351044 542.850751100581Q1425.5682025598412 542.850751100581 1419.1241927181907 544.958378379617Q1412.6801828765404 547.0417800577446 1407.6170322866724 549.6581449558582L1407.6170322866724 549.6581449558582Q1406.2119474339815 548.4468649104354 1405.073344191284 546.8722008513854Q1403.9589665494948 545.2975367923354 1403.9589665494948 543.3837143205672L1403.9589665494948 543.3837143205672Q1403.9589665494948 540.9369286288127 1405.170246594918 539.3622645697628Q1406.3815266403408 537.7876005107129 1408.9978915384545 536.4067412589307L1408.9978915384545 536.4067412589307Q1413.721883715604 533.9599555671762 1419.8267351445363 532.6517731181193Q1425.9315865734682 531.3435906690625 1433.0781388414637 531.3435906690625ZM1547.3260727257614 561.6982686073629L1547.3260727257614 561.6982686073629Q1547.3260727257614 551.9353514412535 1541.8268613195407 547.380938470463Q1536.3276499133206 542.850751100581 1527.097695967197 542.850751100581L1527.097695967197 542.850751100581Q1520.1207229055606 542.850751100581 1514.718413902974 544.5949943659901Q1509.291879299479 546.3392376313993 1505.4642343559424 548.6164441167946L1505.4642343559424 548.6164441167946L1505.4642343559424 613.8559873632773Q1504.5921127232375 614.1951457759958 1502.8478694578287 614.6312065923482Q1501.1036261924194 615.0672674087004 1499.020224514292 615.0672674087004L1499.020224514292 615.0672674087004Q1491.5102882326694 615.0672674087004 1491.5102882326694 608.7928367734094L1491.5102882326694 608.7928367734094L1491.5102882326694 549.3189865431398Q1491.5102882326694 545.6366952050539 1492.9880498880855 543.2868119169333Q1494.4658115435016 540.9369286288127 1498.1481028815874 538.6597221434174L1498.1481028815874 538.6597221434174Q1502.6782902514694 535.8737780389445 1510.1640009321834 533.6207971544577Q1517.673937213806 531.3435906690625 1527.097695967197 531.3435906690625L1527.097695967197 531.3435906690625Q1542.9654645622384 531.3435906690625 1552.1227417056364 538.4901429370582Q1561.2800188490341 545.6366952050539 1561.2800188490341 560.9957261810175L1561.2800188490341 560.9957261810175L1561.2800188490341 613.8559873632773Q1560.4078972163295 614.1951457759958 1558.5667515472867 614.6312065923482Q1556.7498314791521 615.0672674087004 1554.8360090073836 615.0672674087004L1554.8360090073836 615.0672674087004Q1547.3260727257614 615.0672674087004 1547.3260727257614 608.7928367734094L1547.3260727257614 608.7928367734094L1547.3260727257614 561.6982686073629ZM1656.3412768138314 506.22164252698946L1656.3412768138314 600.9437420790682Q1656.3412768138314 604.4322286098864 1654.8635151584153 606.3460510816549Q1653.3857535029993 608.2598735534232 1650.2364253848993 610.1736960251915L1650.2364253848993 610.1736960251915Q1646.7479388540812 612.4509025105867 1640.303929012431 614.461627385989Q1633.835693569872 616.472352261391 1625.4778612564535 616.472352261391L1625.4778612564535 616.472352261391Q1616.0541025030623 616.472352261391 1608.2050078087213 614.0255665696366Q1600.3559131143804 611.5787808778821 1594.6871225018006 606.4429534852886Q1589.0183318892211 601.2829004917867 1585.965906174755 593.3611289947203Q1582.913480460289 585.4151318967454 1582.913480460289 574.2471298779453L1582.913480460289 574.2471298779453Q1582.913480460289 562.9095486527859 1586.0385829774802 554.7939723484518Q1589.1879110955801 546.7026216450262 1594.5175432954413 541.4698918487989Q1599.822949894394 536.2371620525714 1607.0664045660235 533.7903763608169Q1614.3098592376532 531.3435906690625 1622.4981123447126 531.3435906690625L1622.4981123447126 531.3435906690625Q1628.094226154567 531.3435906690625 1633.3269559507944 532.7486755217532Q1638.5596857470216 534.1295347735354 1642.3873306905587 536.2371620525714L1642.3873306905587 536.2371620525714L1642.3873306905587 501.1584919371213Q1643.2594523232628 500.81933352440285 1645.100597992306 500.3832727080506Q1646.9175180604404 499.9472118916983 1648.8313405322087 499.9472118916983L1648.8313405322087 499.9472118916983Q1656.3412768138314 499.9472118916983 1656.3412768138314 506.22164252698946L1656.3412768138314 506.22164252698946ZM1642.3873306905587 600.410778859082L1642.3873306905587 548.7860233231537Q1638.89884415974 546.3392376313993 1634.3686567898583 544.5949943659901Q1629.838469419976 542.850751100581 1623.9031971974034 542.850751100581L1623.9031971974034 542.850751100581Q1618.5008881948168 542.850751100581 1613.7042192149418 544.5223175632648Q1608.9075502350665 546.1696584250401 1605.2252588969807 549.9246265658513Q1601.5671931598033 553.6795947066627 1599.386889078042 559.7844461355946Q1597.2065849962805 565.8892975645265 1597.2065849962805 574.610513891572L1597.2065849962805 574.610513891572Q1597.2065849962805 590.6478616929726 1604.8861004842622 597.7944139609683Q1612.5656159722441 604.940966228964 1625.2840564491855 604.940966228964L1625.2840564491855 604.940966228964Q1631.3889078781176 604.940966228964 1635.313455225288 603.6327837799072Q1639.2380025724588 602.3246013308503 1642.3873306905587 600.410778859082L1642.3873306905587 600.410778859082ZM1697.6701519636642 539.1926853634036L1697.6701519636642 613.8559873632773Q1696.7980303309596 614.1951457759958 1695.0537870655505 614.6312065923482Q1693.3095438001415 615.0672674087004 1691.226142122014 615.0672674087004L1691.226142122014 615.0672674087004Q1683.7162058403912 615.0672674087004 1683.7162058403912 608.7928367734094L1683.7162058403912 608.7928367734094L1683.7162058403912 533.9599555671762Q1684.5883274730957 533.6207971544577 1686.4294731421387 533.1847363381055Q1688.2706188111817 532.7486755217532 1690.354020489309 532.7486755217532L1690.354020489309 532.7486755217532Q1697.6701519636642 532.7486755217532 1697.6701519636642 539.1926853634036L1697.6701519636642 539.1926853634036ZM1681.6328041622637 508.13546499875775L1681.6328041622637 508.13546499875775Q1681.6328041622637 504.47739926158033 1684.1522666567434 501.9579367671005Q1686.6959547521317 499.4142486717122 1690.6931789020277 499.4142486717122L1690.6931789020277 499.4142486717122Q1694.714628652832 499.4142486717122 1697.1614143445865 501.9579367671005Q1699.608200036341 504.47739926158033 1699.608200036341 508.13546499875775L1699.608200036341 508.13546499875775Q1699.608200036341 511.81775633684373 1697.1614143445865 514.3372188313235Q1694.714628652832 516.8566813258035 1690.6931789020277 516.8566813258035L1690.6931789020277 516.8566813258035Q1686.6959547521317 516.8566813258035 1684.1522666567434 514.3372188313235Q1681.6328041622637 511.81775633684373 1681.6328041622637 508.13546499875775ZM1780.7155118778653 561.6982686073629L1780.7155118778653 561.6982686073629Q1780.7155118778653 551.9353514412535 1775.2163004716447 547.380938470463Q1769.7170890654245 542.850751100581 1760.4629095183925 542.850751100581L1760.4629095183925 542.850751100581Q1753.485936456756 542.850751100581 1748.0836274541696 544.5949943659901Q1742.681318451583 546.3392376313993 1738.8536735080463 548.6164441167946L1738.8536735080463 548.6164441167946L1738.8536735080463 613.8559873632773Q1737.9815518753417 614.1951457759958 1736.2373086099326 614.6312065923482Q1734.4930653445235 615.0672674087004 1732.3854380654873 615.0672674087004L1732.3854380654873 615.0672674087004Q1724.8997273847733 615.0672674087004 1724.8997273847733 608.7928367734094L1724.8997273847733 608.7928367734094L1724.8997273847733 549.3189865431398Q1724.8997273847733 545.6366952050539 1726.3774890401894 543.2868119169333Q1727.8552506956055 540.9369286288127 1731.5133164327829 538.6597221434174L1731.5133164327829 538.6597221434174Q1736.0435038026649 535.8737780389445 1743.5534400842876 533.6207971544577Q1751.06337636591 531.3435906690625 1760.4629095183925 531.3435906690625L1760.4629095183925 531.3435906690625Q1776.3549037143423 531.3435906690625 1785.5121808577403 538.4901429370582Q1794.669458001138 545.6366952050539 1794.669458001138 560.9957261810175L1794.669458001138 560.9957261810175L1794.669458001138 613.8559873632773Q1793.7973363684337 614.1951457759958 1791.9561906993906 614.6312065923482Q1790.1150450303476 615.0672674087004 1788.2012225585793 615.0672674087004L1788.2012225585793 615.0672674087004Q1780.7155118778653 615.0672674087004 1780.7155118778653 608.7928367734094L1780.7155118778653 608.7928367734094L1780.7155118778653 561.6982686073629ZM1874.7108434026902 616.8115106741095L1874.7108434026902 605.8130878616687Q1871.755320091858 608.2598735534232 1866.6194926992646 610.0041168188322Q1861.4594397057624 611.7483600842413 1854.312887437767 611.7483600842413L1854.312887437767 611.7483600842413Q1846.633371949785 611.7483600842413 1839.8259780945075 609.56805600248Q1833.0428098401387 607.3877519207185 1827.882756846637 602.5910829408435Q1822.7469294540435 597.7944139609683 1819.6945037395774 590.1148984729866Q1816.6420780251112 582.4596085859132 1816.6420780251112 571.4611857734724L1816.6420780251112 571.4611857734724Q1816.6420780251112 561.5286894010037 1819.5976013359436 554.018753119381Q1822.5773502476843 546.5088168377586 1827.882756846637 541.4698918487989Q1833.212389046498 536.4067412589307 1840.5285205208531 533.8630531635424Q1847.8688775961166 531.3435906690625 1856.7596731295214 531.3435906690625L1856.7596731295214 531.3435906690625Q1864.7783470302213 531.3435906690625 1871.4888384818648 533.3543155444647Q1878.1993299335084 535.3650404198669 1882.7537429042989 538.320563730699L1882.7537429042989 538.320563730699Q1885.3701078024126 540.0648069961081 1887.017448664188 542.2451110778695Q1888.6647895259632 544.4254151596309 1888.6647895259632 547.5747432777307L1888.6647895259632 547.5747432777307L1888.6647895259632 617.6836323068142Q1888.6647895259632 626.4048486338597 1885.8061686187646 632.4127976591578Q1882.923322110658 638.4449722853644 1877.763269117156 642.1999404261755Q1872.6274417245625 645.9306829660784 1865.6504686629262 647.6749262314877Q1858.6734956012895 649.4191694968968 1850.6548217005895 649.4191694968968L1850.6548217005895 649.4191694968968Q1841.7640261671843 649.4191694968968 1835.5622723346185 647.6022494287622Q1829.360518502053 645.7611037597194 1827.107537617566 644.380244507937L1827.107537617566 644.380244507937Q1821.8748078213387 641.4004955961964 1821.8748078213387 636.8703082263144L1821.8748078213387 636.8703082263144Q1821.8748078213387 634.4235225345599 1823.0134110640363 632.7761816727848Q1824.1277887058257 631.104615210101 1825.8720319712345 630.2324935773963L1825.8720319712345 630.2324935773963Q1829.5543233093206 633.0426632827778 1836.1679123573301 635.3925465708983Q1842.8057270062484 637.742429859019 1850.6548217005895 637.742429859019L1850.6548217005895 637.742429859019Q1862.3315613384668 637.742429859019 1868.5333151710327 632.7761816727848Q1874.7108434026902 627.8099334865503 1874.7108434026902 616.8115106741095L1874.7108434026902 616.8115106741095ZM1855.8875514968165 600.2411996527228L1855.8875514968165 600.2411996527228Q1862.8645245584532 600.2411996527228 1867.2978095247015 598.0608955709615Q1871.755320091858 595.8805914892 1874.7108434026902 593.0946473847271L1874.7108434026902 593.0946473847271L1874.7108434026902 547.7443224840899Q1871.755320091858 545.8305000123216 1867.2978095247015 544.328512755997Q1862.8645245584532 542.850751100581 1856.7596731295214 542.850751100581L1856.7596731295214 542.850751100581Q1844.8891286843757 542.850751100581 1837.8394788200137 549.9973033685767Q1830.7656033547435 557.1680812374809 1830.7656033547435 571.2916065671131L1830.7656033547435 571.2916065671131Q1830.7656033547435 579.1407012614541 1832.679425826512 584.6399126676747Q1834.5932482982805 590.1148984729866 1838.0090580263734 593.6033850038048Q1841.4006421535576 597.0918715346231 1846.0277319270738 598.666535593673Q1850.6548217005895 600.2411996527228 1855.8875514968165 600.2411996527228ZM2029.2701771986651 519.8364302375439L2029.2701771986651 519.8364302375439Q2029.2701771986651 522.2832159292984 2027.7681899423408 524.0274591947075Q2026.2904282869247 525.7717024601168 2024.3766058151562 526.6438240928212L2024.3766058151562 526.6438240928212Q2019.8464184452744 523.4944959747215 2013.741567016342 520.7085518702486Q2007.6367155874102 517.9226077657756 1997.873798421301 517.9226077657756L1997.873798421301 517.9226077657756Q1989.8308989196923 517.9226077657756 1983.0477306653236 520.7085518702486Q1976.240336810046 523.4944959747215 1971.1771862201779 528.896804977308Q1966.1140356303097 534.2991139798946 1963.2311891222032 542.5115926878625Q1960.372568215005 550.6998457949221 1960.372568215005 561.334884593736L1960.372568215005 561.334884593736Q1960.372568215005 572.1637281998178 1963.1585123194775 580.182402100518Q1965.944456423951 588.2010760012183 1970.9107046101847 593.6033850038048Q1975.8769527964193 599.0299196072999 1982.8539258580556 601.7189613081389Q1989.8308989196923 604.4322286098864 1998.3825360403787 604.4322286098864L1998.3825360403787 604.4322286098864Q2007.467136381051 604.4322286098864 2014.1776278326945 601.8885405144981Q2020.888119284338 599.3690780200184 2025.4183066542198 595.8805914892L2025.4183066542198 595.8805914892Q2027.162549919629 596.5831339155454 2028.7372139786792 598.40005398368Q2030.3118780377288 600.2411996527228 2030.3118780377288 602.6879853444773L2030.3118780377288 602.6879853444773Q2030.3118780377288 606.3460510816549 2026.1208490805654 609.3015743924868L2026.1208490805654 609.3015743924868Q2022.099399329761 612.1117440978683 2015.1224262681246 614.2920481796298Q2008.145453206488 616.472352261391 1997.3408352013146 616.472352261391L1997.3408352013146 616.472352261391Q1986.3424123888738 616.472352261391 1976.9428792363913 612.9838657305729Q1967.5191204830005 609.4953791997546 1960.6148242240895 602.5910829408435Q1953.7347535660867 595.7110122828408 1949.7133038152822 585.4151318967454Q1945.7160796653864 575.1192515106497 1945.7160796653864 561.334884593736L1945.7160796653864 561.334884593736Q1945.7160796653864 547.5747432777307 1949.8102062189162 537.1819604880013Q1953.904332772446 526.8134032991804 1960.8813058340827 519.8364302375439Q1967.858278895719 512.8594571759074 1977.1851352454762 509.37097064508924Q1986.5362171961417 505.882484114271 1996.8078719813286 505.882484114271L1996.8078719813286 505.882484114271Q2003.9786498502328 505.882484114271 2009.9865988755312 507.093764159694Q2015.994547900829 508.3292698060255 2020.2824792616263 510.31576908051915Q2024.5461850215154 512.3264939559214 2026.8960683096363 514.8701820513097Q2029.2701771986651 517.3896445457895 2029.2701771986651 519.8364302375439ZM2066.2384441849754 613.8559873632773L2066.2384441849754 613.8559873632773Q2065.3663225522705 614.1951457759958 2063.6220792868617 614.6312065923482Q2061.877836021453 615.0672674087004 2059.7944343433246 615.0672674087004L2059.7944343433246 615.0672674087004Q2052.284498061702 615.0672674087004 2052.284498061702 608.7928367734094L2052.284498061702 608.7928367734094L2052.284498061702 501.1584919371213Q2053.156619694407 500.81933352440285 2054.9977653634496 500.3832727080506Q2056.8146854315846 499.9472118916983 2058.9223127106206 499.9472118916983L2058.9223127106206 499.9472118916983Q2066.2384441849754 499.9472118916983 2066.2384441849754 506.22164252698946L2066.2384441849754 506.22164252698946L2066.2384441849754 537.6180213043536Q2070.4294731421387 535.1712356125992 2076.0982637547186 533.2574131408309Q2081.7670543672984 531.3435906690625 2088.913606635294 531.3435906690625L2088.913606635294 531.3435906690625Q2096.2297381096487 531.3435906690625 2102.2619127358557 533.2574131408309Q2108.269861761153 535.1712356125992 2112.6304699246757 539.0957829597697Q2116.991078088199 543.0203303069402 2119.4378637799537 549.0525049331468Q2121.884649471708 555.0604539584449 2121.884649471708 563.0791278591452L2121.884649471708 563.0791278591452L2121.884649471708 613.8559873632773Q2121.0125278390033 614.1951457759958 2119.1713821699605 614.6312065923482Q2117.3544621018264 615.0672674087004 2115.4164140291487 615.0672674087004L2115.4164140291487 615.0672674087004Q2107.9307033484347 615.0672674087004 2107.9307033484347 608.7928367734094L2107.9307033484347 608.7928367734094L2107.9307033484347 563.442511872772Q2107.9307033484347 552.9770522803174 2102.1650103322218 547.9139016904492Q2096.4235429169166 542.850751100581 2086.999784163526 542.850751100581L2086.999784163526 542.850751100581Q2080.8949327345936 542.850751100581 2075.565300534732 545.0310551823425Q2070.2598939357795 547.2113592641037 2066.2384441849754 550.3606873822037L2066.2384441849754 550.3606873822037L2066.2384441849754 613.8559873632773ZM2211.7131776402775 574.610513891572L2157.9807948253138 582.0962245722862Q2162.7047870024635 604.940966228964 2187.996314350896 604.940966228964L2187.996314350896 604.940966228964Q2195.3124458252505 604.940966228964 2201.2477180478227 602.518406138118Q2207.1829902703957 600.0716204463636 2210.6714768012143 597.2856763418906L2210.6714768012143 597.2856763418906Q2214.838280157469 599.7082364327368 2214.838280157469 603.8992653899004L2214.838280157469 603.8992653899004Q2214.838280157469 606.3460510816549 2212.6579760757077 608.6232575670501Q2210.4776719939464 610.8762384515369 2206.7469294540433 612.620481716946Q2202.9919613132324 614.364724982355 2198.025713126998 615.4064258214189Q2193.0352393398553 616.472352261391 2187.29377192455 616.472352261391L2187.29377192455 616.472352261391Q2167.065395165986 616.472352261391 2155.291753124474 605.4739294489502Q2143.5181110829626 594.4755066365094 2143.5181110829626 573.3750082452407L2143.5181110829626 573.3750082452407Q2143.5181110829626 563.442511872772 2146.376731990161 555.6660939811563Q2149.2595784982677 547.9139016904492 2154.41963149177 542.5115926878625Q2159.5554588843634 537.109283685276 2166.702011152359 534.2264371771693Q2173.8485634203544 531.3435906690625 2182.230621334682 531.3435906690625L2182.230621334682 531.3435906690625Q2190.079716029023 531.3435906690625 2196.717530677941 533.9599555671762Q2203.331119725951 536.5763204652899 2208.127788705826 541.3729894451649Q2212.924457685701 546.1696584250401 2215.6377249874477 552.7105706703243Q2218.3267666882875 559.2514829156084 2218.3267666882875 567.1005776099495L2218.3267666882875 567.1005776099495Q2218.3267666882875 570.9282225534862 2216.582523422878 572.59978901617Q2214.838280157469 574.2471298779453 2211.7131776402775 574.610513891572L2211.7131776402775 574.610513891572ZM2182.0610421283227 542.6811718942217L2182.0610421283227 542.6811718942217Q2171.4260033295086 542.6811718942217 2164.4490302678723 550.0942057722106Q2157.472057206235 557.5072396501994 2157.108673192609 571.2916065671131L2157.108673192609 571.2916065671131L2205.0753629913597 564.6537919181951Q2204.203241358655 555.0604539584449 2198.3648715397158 548.8829257267876Q2192.5265017207776 542.6811718942217 2182.0610421283227 542.6811718942217ZM2340.7871792805527 559.4210621219677L2340.7871792805527 559.4210621219677Q2340.7871792805527 550.8694250012813 2335.8936078970437 546.8722008513854Q2331.0242621144434 542.850751100581 2322.811783406475 542.850751100581L2322.811783406475 542.850751100581Q2311.4742021813163 542.850751100581 2302.583406647911 550.8694250012813L2302.583406647911 550.8694250012813Q2303.625107486975 554.3579115320995 2303.625107486975 558.3793612829039L2303.625107486975 558.3793612829039L2303.625107486975 613.8559873632773Q2302.7529858542703 614.1951457759958 2300.936065786136 614.6312065923482Q2299.0949201170924 615.0672674087004 2297.1810976453253 615.0672674087004L2297.1810976453253 615.0672674087004Q2289.6711613637017 615.0672674087004 2289.6711613637017 608.7928367734094L2289.6711613637017 608.7928367734094L2289.6711613637017 559.4210621219677Q2289.6711613637017 550.8694250012813 2284.8018155811014 546.8722008513854Q2279.9082441975925 542.850751100581 2271.526186283266 542.850751100581L2271.526186283266 542.850751100581Q2265.95429807432 542.850751100581 2260.9880498880857 544.5949943659901Q2256.0218017018506 546.3392376313993 2252.533315171033 548.6164441167946L2252.533315171033 548.6164441167946L2252.533315171033 613.8559873632773Q2251.661193538328 614.1951457759958 2249.916950272919 614.6312065923482Q2248.1727070075103 615.0672674087004 2246.0650797284743 615.0672674087004L2246.0650797284743 615.0672674087004Q2238.5793690477594 615.0672674087004 2238.5793690477594 608.7928367734094L2238.5793690477594 608.7928367734094L2238.5793690477594 549.3189865431398Q2238.5793690477594 545.8305000123216 2240.057130703176 543.4563911232925Q2241.5348923585916 541.1065078351719 2245.1929580957694 538.6597221434174L2245.1929580957694 538.6597221434174Q2249.916950272919 535.7041988325852 2257.13617934364 533.523894750824Q2264.3796340152694 531.3435906690625 2271.719991090533 531.3435906690625L2271.719991090533 531.3435906690625Q2280.247402610311 531.3435906690625 2286.8852172592296 533.8630531635424Q2293.5230319081475 536.4067412589307 2297.011518438965 540.7673494224534L2297.011518438965 540.7673494224534Q2301.541705808847 536.7458996716491 2308.349099664125 534.05685797081Q2315.132267918494 531.3435906690625 2323.853484245539 531.3435906690625L2323.853484245539 531.3435906690625Q2338.0012351760797 531.3435906690625 2346.3590674894986 538.054082120706Q2354.741125403826 544.7645735723494 2354.741125403826 558.7185196956223L2354.741125403826 558.7185196956223L2354.741125403826 613.8559873632773Q2353.8690037711212 614.1951457759958 2352.0278581020784 614.6312065923482Q2350.2109380339434 615.0672674087004 2348.2728899612666 615.0672674087004L2348.2728899612666 615.0672674087004Q2340.7871792805527 615.0672674087004 2340.7871792805527 608.7928367734094L2340.7871792805527 608.7928367734094L2340.7871792805527 559.4210621219677ZM2395.73084214094 539.1926853634036L2395.73084214094 613.8559873632773Q2394.858720508235 614.1951457759958 2393.114477242826 614.6312065923482Q2391.3702339774172 615.0672674087004 2389.262606698381 615.0672674087004L2389.262606698381 615.0672674087004Q2381.7768960176672 615.0672674087004 2381.7768960176672 608.7928367734094L2381.7768960176672 608.7928367734094L2381.7768960176672 533.9599555671762Q2382.649017650372 533.6207971544577 2384.465937718506 533.1847363381055Q2386.307083387549 532.7486755217532 2388.3904850656772 532.7486755217532L2388.3904850656772 532.7486755217532Q2395.73084214094 532.7486755217532 2395.73084214094 539.1926853634036L2395.73084214094 539.1926853634036ZM2379.669268738631 508.13546499875775L2379.669268738631 508.13546499875775Q2379.669268738631 504.47739926158033 2382.2129568340188 501.9579367671005Q2384.7324193284994 499.4142486717122 2388.7538690793035 499.4142486717122L2388.7538690793035 499.4142486717122Q2392.7510932292 499.4142486717122 2395.1978789209543 501.9579367671005Q2397.6446646127088 504.47739926158033 2397.6446646127088 508.13546499875775L2397.6446646127088 508.13546499875775Q2397.6446646127088 511.81775633684373 2395.1978789209543 514.3372188313235Q2392.7510932292 516.8566813258035 2388.7538690793035 516.8566813258035L2388.7538690793035 516.8566813258035Q2384.7324193284994 516.8566813258035 2382.2129568340188 514.3372188313235Q2379.669268738631 511.81775633684373 2379.669268738631 508.13546499875775ZM2479.7936772932962 592.7312633711003L2479.7936772932962 592.7312633711003Q2479.7936772932962 603.8992653899004 2471.6054241862366 610.1736960251915Q2463.392945478269 616.472352261391 2447.888560896855 616.472352261391L2447.888560896855 616.472352261391Q2441.250746247936 616.472352261391 2435.6788580389903 615.3337490186934Q2430.0827442291366 614.1951457759958 2426.1581968819664 612.354000106953Q2422.2336495347954 610.5370800388184 2420.053345453034 608.1871967506977Q2417.873041371273 605.8130878616687 2417.873041371273 603.3905277708227L2417.873041371273 603.3905277708227Q2417.873041371273 601.2829004917867 2419.01164461397 599.3690780200184Q2420.150247856668 597.4552555482501 2422.4032287411546 596.0501706955592L2422.4032287411546 596.0501706955592Q2427.1272209183044 599.5386572263776 2433.401651553595 602.2519245281251Q2439.6760821888865 604.940966228964 2447.694756089587 604.940966228964L2447.694756089587 604.940966228964Q2465.8397311700237 604.940966228964 2465.8397311700237 592.7312633711003L2465.8397311700237 592.7312633711003Q2465.8397311700237 582.7987669986317 2453.7996075185183 579.8432436877995L2453.7996075185183 579.8432436877995L2439.336923776168 575.9913731433544Q2428.701884977354 573.2054290388814 2423.808313593845 567.8757968390203Q2418.914742210336 562.5703902400675 2418.914742210336 554.1883323257402L2418.914742210336 554.1883323257402Q2418.914742210336 549.6581449558582 2420.755887879379 545.4671159986947Q2422.5970335484226 541.2760870415311 2426.4246784919587 538.1509845243397Q2430.252323435496 535.00165640624 2435.9211140480757 533.1847363381055Q2441.5899046606546 531.3435906690625 2449.2694201486365 531.3435906690625L2449.2694201486365 531.3435906690625Q2461.4791230065002 531.3435906690625 2468.989059288123 534.9289796035146Q2476.474769968838 538.4901429370582 2476.474769968838 543.2141351142079L2476.474769968838 543.2141351142079Q2476.474769968838 545.4671159986947 2475.3603923270484 547.2113592641037Q2474.2217890843503 548.9556025295129 2472.3079666125823 549.8277241622175L2472.3079666125823 549.8277241622175Q2469.158638494482 547.7443224840899 2463.392945478269 545.2975367923354Q2457.651478062964 542.850751100581 2449.802383368623 542.850751100581L2449.802383368623 542.850751100581Q2441.953288674282 542.850751100581 2437.326198900766 545.8305000123216Q2432.6991091272503 548.7860233231537 2432.6991091272503 554.1883323257402L2432.6991091272503 554.1883323257402Q2432.6991091272503 558.2097820765447 2435.315474025364 560.9957261810175Q2437.931838923477 563.7816702854905 2444.036690352409 565.1867551381812L2444.036690352409 565.1867551381812L2456.0768140039136 568.1422784490132Q2467.9473584490597 571.1220273607539 2473.858405070723 576.9603971796928Q2479.7936772932962 582.7987669986317 2479.7936772932962 592.7312633711003ZM2528.4629095183927 616.472352261391L2528.4629095183927 616.472352261391Q2516.253206660529 616.472352261391 2508.670593576181 611.0458176578961Q2501.087980491833 605.6435086553095 2501.087980491833 593.0946473847271L2501.087980491833 593.0946473847271L2501.087980491833 510.2430922777938Q2501.960102124537 509.87970826416694 2503.777022192672 509.4436474478146Q2505.618167861715 509.00758663146235 2507.7015695398422 509.00758663146235L2507.7015695398422 509.00758663146235Q2515.0419266151057 509.00758663146235 2515.0419266151057 515.3062428676619L2515.0419266151057 515.3062428676619L2515.0419266151057 535.3650404198669L2543.6281356870886 535.3650404198669Q2544.161098907075 536.2371620525714 2544.6940621270605 537.7149237079875Q2545.202799746138 539.1926853634036 2545.202799746138 540.9369286288127L2545.202799746138 540.9369286288127Q2545.202799746138 546.8722008513854 2539.970069949911 546.8722008513854L2539.970069949911 546.8722008513854L2515.0419266151057 546.8722008513854L2515.0419266151057 592.2225257520226Q2515.0419266151057 599.1994988136591 2518.966473962276 602.0823453217658Q2522.891021309447 604.940966228964 2530.0375735774423 604.940966228964L2530.0375735774423 604.940966228964Q2532.9930968882745 604.940966228964 2536.6511626254523 603.8992653899004Q2540.333453963538 602.8575645508365 2542.7560140543837 601.4524796981459L2542.7560140543837 601.4524796981459Q2543.8219404943566 602.518406138118 2544.6940621270605 604.0688445962596Q2545.5661837597654 605.6435086553095 2545.5661837597654 607.7511359343455L2545.5661837597654 607.7511359343455Q2545.5661837597654 611.5787808778821 2541.011770788975 614.0255665696366Q2536.481583419093 616.472352261391 2528.4629095183927 616.472352261391ZM2579.748506641603 548.6164441167946L2579.748506641603 613.8559873632773Q2578.876385008898 614.1951457759958 2577.1321417434883 614.6312065923482Q2575.3878984780795 615.0672674087004 2573.2802711990435 615.0672674087004L2573.2802711990435 615.0672674087004Q2565.7945605183295 615.0672674087004 2565.7945605183295 608.7928367734094L2565.7945605183295 608.7928367734094L2565.7945605183295 549.6581449558582Q2565.7945605183295 545.6366952050539 2567.272322173746 543.2868119169333Q2568.7500838291617 540.9369286288127 2572.2385703599793 538.6597221434174L2572.2385703599793 538.6597221434174Q2576.768757729862 535.7041988325852 2584.545175621478 533.523894750824Q2592.297367912185 531.3435906690625 2602.0602850782943 531.3435906690625L2602.0602850782943 531.3435906690625Q2616.014231201567 531.3435906690625 2616.014231201567 538.320563730699L2616.014231201567 538.320563730699Q2616.014231201567 540.0648069961081 2615.505493582489 541.5425686515241Q2614.9725303625037 543.0203303069402 2614.100408729799 544.0862567469125L2614.100408729799 544.0862567469125Q2612.35616546439 543.7228727332856 2609.570221359917 543.3837143205672Q2606.784277255444 543.0203303069402 2603.998333150971 543.0203303069402L2603.998333150971 543.0203303069402Q2595.955433649362 543.0203303069402 2589.8505822204306 544.691896769624Q2583.7457307914983 546.3392376313993 2579.748506641603 548.6164441167946L2579.748506641603 548.6164441167946ZM2648.815694831622 596.2197499019185L2648.815694831622 596.2197499019185Q2646.5384883462266 592.0529465456634 2643.5829650353953 585.5847111031046Q2640.6274417245622 579.1407012614541 2637.381211202829 571.1220273607539Q2634.1592062820037 563.0791278591452 2630.8402989575443 554.115655523015Q2627.5456172339946 545.1279575859762 2624.5658683222537 535.8737780389445L2624.5658683222537 535.8737780389445Q2625.801373968585 534.1295347735354 2627.787873243078 533.0878339344716Q2629.798598118481 532.0461330954079 2632.0758046038763 532.0461330954079L2632.0758046038763 532.0461330954079Q2635.0313279147085 532.0461330954079 2636.8724735837513 533.6207971544577Q2638.6893936518854 535.1712356125992 2640.0944785045767 538.8535269506851L2640.0944785045767 538.8535269506851Q2645.3272083008032 553.6795947066627 2650.995998913383 567.972699242654Q2656.664789525963 582.2658037786455 2663.8113417939585 597.9639931673275L2663.8113417939585 597.9639931673275L2664.513884220304 597.9639931673275Q2667.299828324777 592.5616841647411 2670.279577236518 584.8094918740339Q2673.23510054735 577.033073982418 2676.117947055456 568.3118576553725Q2679.000793563563 559.5906413283269 2681.520256058043 550.6271689921966Q2684.0397185525226 541.6394710551581 2685.9777666251994 533.42699234719L2685.9777666251994 533.42699234719Q2687.1890466706227 532.9182547281124 2688.594131523313 532.4821939117601Q2689.9749907750956 532.0461330954079 2691.8888132468637 532.0461330954079L2691.8888132468637 532.0461330954079Q2694.8685621586046 532.0461330954079 2696.7823846303727 533.523894750824Q2698.6962071021417 535.00165640624 2698.6962071021417 537.9814053179805L2698.6962071021417 537.9814053179805Q2698.6962071021417 541.4698918487989 2696.2494214103863 550.6998457949221Q2693.8268613195405 559.9540253419539 2689.9023139723704 571.4611857734724Q2685.9777666251994 582.9683462049909 2680.914616035332 595.1053722601293Q2675.851465445464 607.2181727143593 2670.6187356492355 616.6419314677503L2670.6187356492355 616.6419314677503Q2662.430482542177 631.4679992237279 2655.889570296892 639.3897707207943Q2649.3486580516083 647.3357678187692 2643.7525442417536 647.3357678187692L2643.7525442417536 647.3357678187692Q2639.7553200918583 647.3357678187692 2637.575016010097 645.2523661406417Q2635.394711928335 643.1447388616057 2634.8617487083493 640.3587947571327L2634.8617487083493 640.3587947571327Q2637.6476928128222 637.9120090653782 2641.13617934364 634.0843641218416Q2644.6246658744585 630.2324935773963 2648.113152405277 625.7992086111483Q2651.601638936095 621.3416980439915 2654.750967054195 616.6419314677503Q2657.8760695713863 611.9179392906005 2659.9836968504223 607.5573311270778L2659.9836968504223 607.5573311270778Q2657.0039479386814 606.6852094943733 2654.4844854442017 604.5049054126118Q2651.965022949722 602.3246013308503 2648.815694831622 596.2197499019185Z " fill="#a04ef6" transform="matrix(0.3242306698571865,0,0,0.3242306698571865,0,113.75642447065452)"/></g></svg>